<svg width="22" height="20" viewBox="0 0 22 20" fill="none" xmlns="http://www.w3.org/2000/svg">
<path d="M10.5516 1.4334C10.7351 1.06182 11.2649 1.06182 11.4484 1.4334L13.9738 6.54963C14.0465 6.69705 14.1871 6.79928 14.3498 6.82306L19.9981 7.64864C20.4081 7.70856 20.5715 8.21249 20.2747 8.50157L16.1884 12.4816C16.0705 12.5965 16.0166 12.762 16.0445 12.9243L17.0087 18.5464C17.0788 18.9549 16.65 19.2664 16.2832 19.0735L11.2327 16.4175C11.087 16.3409 10.913 16.3409 10.7673 16.4175L5.71682 19.0735C5.35 19.2664 4.92123 18.9549 4.99129 18.5464L5.95554 12.9243C5.98337 12.762 5.92954 12.5965 5.81161 12.4816L1.72534 8.50157C1.42854 8.21249 1.59193 7.70856 2.00189 7.64864L7.65018 6.82306C7.81286 6.79928 7.95345 6.69705 8.02622 6.54963L10.5516 1.4334Z" stroke="#B2B2B2" stroke-width="1.5" stroke-linecap="round" stroke-linejoin="round"/>
</svg>
