<svg width="22" height="20" viewBox="0 0 22 20" fill="none" xmlns="http://www.w3.org/2000/svg">
<path d="M10.5516 1.4534C10.7351 1.08182 11.2649 1.08182 11.4484 1.4534L13.9738 6.56963C14.0465 6.71705 14.1871 6.81928 14.3498 6.84306L19.9981 7.66864C20.4081 7.72857 20.5715 8.23249 20.2747 8.52157L16.1884 12.5016C16.0705 12.6165 16.0166 12.782 16.0445 12.9443L17.0087 18.5664C17.0788 18.9749 16.65 19.2864 16.2832 19.0935L11.2327 16.4375C11.087 16.3609 10.913 16.3609 10.7673 16.4375L5.71682 19.0935C5.35 19.2864 4.92123 18.9749 4.99129 18.5664L5.95554 12.9443C5.98337 12.782 5.92954 12.6165 5.81161 12.5016L1.72534 8.52157C1.42854 8.23249 1.59193 7.72857 2.00189 7.66864L7.65018 6.84306C7.81286 6.81928 7.95345 6.71705 8.02622 6.56963L10.5516 1.4534Z" fill="#FFDE00" stroke="#FFDE00" stroke-width="1.5" stroke-linecap="round" stroke-linejoin="round"/>
</svg>
