<svg width="103" height="60" viewBox="0 0 103 60" fill="none" xmlns="http://www.w3.org/2000/svg">
<path d="M58.5 14.498H57.399C56.934 12.219 54.914 10.498 52.5 10.498H44.5C41.743 10.498 39.5 12.741 39.5 15.498V28.352C39.5 29.146 39.935 29.872 40.634 30.246C40.952 30.417 41.301 30.501 41.649 30.501C42.065 30.501 42.48 30.38 42.839 30.141L45.789 28.174C46.48 30.109 48.33 31.498 50.5 31.498H56.197L60.161 34.141C60.521 34.381 60.935 34.502 61.351 34.502C61.699 34.502 62.047 34.417 62.366 34.246C63.066 33.872 63.5 33.146 63.5 32.352V19.498C63.5 16.741 61.257 14.498 58.5 14.498ZM41.73 28.477C41.711 28.489 41.655 28.525 41.578 28.484C41.499 28.442 41.499 28.375 41.499 28.353V15.498C41.499 13.844 42.845 12.498 44.499 12.498H52.499C54.153 12.498 55.499 13.844 55.499 15.498V22.498C55.499 24.152 54.153 25.498 52.499 25.498H46.499C46.172 25.498 45.958 25.657 45.934 25.673L41.73 28.477ZM61.5 32.353C61.5 32.374 61.5 32.442 61.421 32.484C61.342 32.525 61.288 32.489 61.27 32.477L57.055 29.666C56.891 29.557 56.698 29.498 56.5 29.498H50.5C49.196 29.498 48.085 28.662 47.672 27.498H52.5C55.257 27.498 57.5 25.255 57.5 22.498V16.498H58.5C60.154 16.498 61.5 17.844 61.5 19.498V32.353Z" fill="#B0B3BA"/>
<path d="M45.2266 42.7334C45.2266 43.2419 45.3035 43.7396 45.4575 44.2266C45.6151 44.7136 45.8478 45.154 46.1558 45.5479C46.4637 45.9418 46.8343 46.2533 47.2676 46.4825L46.6875 47.2452C46.2327 47.0053 45.8407 46.6687 45.5112 46.2354C45.1854 45.8021 44.9329 45.3062 44.7539 44.7476C44.5785 45.3492 44.3278 45.8845 44.002 46.3536C43.6797 46.8226 43.293 47.1879 42.8418 47.4493L42.2402 46.6973C42.6699 46.4467 43.0369 46.1119 43.3413 45.6929C43.6457 45.2704 43.8748 44.8031 44.0288 44.2911C44.1864 43.779 44.2669 43.2598 44.2705 42.7334V42.379H42.4873V41.5303H44.2705V40.1338H45.2266V41.5303H46.9775V42.379H45.2266V42.7334ZM47.5684 39.9727H48.5352V43.6143H49.6846V39.7901H50.6621V49.4151H49.6846V44.4737H48.5352V48.9424H47.5684V39.9727ZM57.0322 41.3047H53.4336V42.3682H56.7637V43.1739H53.4336V44.2696H54.019C54.8569 44.2696 55.5552 44.2535 56.1138 44.2212C56.6724 44.1854 57.2292 44.1192 57.7842 44.0225L57.8916 44.8497C57.265 44.9535 56.6348 45.0233 56.001 45.0591C55.3708 45.0914 54.5526 45.1075 53.5464 45.1075H53.1973H52.4023V40.4883H57.0322V41.3047ZM53.3369 47.6211C53.3369 47.2487 53.4676 46.9301 53.729 46.6651C53.9904 46.4001 54.3664 46.1978 54.8569 46.0582C55.3475 45.9185 55.9329 45.8487 56.6133 45.8487C57.2829 45.8487 57.863 45.9185 58.3535 46.0582C58.8477 46.1978 59.2272 46.4019 59.4922 46.6705C59.7572 46.9354 59.8896 47.2523 59.8896 47.6211C59.8896 47.9935 59.7572 48.3122 59.4922 48.5772C59.2272 48.8457 58.8477 49.0481 58.3535 49.1841C57.863 49.3238 57.2829 49.3936 56.6133 49.3936C55.9329 49.3936 55.3475 49.3238 54.8569 49.1841C54.3664 49.0481 53.9904 48.8475 53.729 48.5826C53.4676 48.3176 53.3369 47.9971 53.3369 47.6211ZM54.3574 47.6211C54.3538 47.9327 54.549 48.1744 54.9429 48.3462C55.3368 48.5181 55.8936 48.6058 56.6133 48.6094C57.3223 48.6058 57.8755 48.5181 58.2729 48.3462C58.674 48.1744 58.8727 47.9327 58.8691 47.6211C58.8691 47.4206 58.7796 47.2487 58.6006 47.1055C58.4251 46.9587 58.1691 46.8477 57.8325 46.7725C57.4995 46.6937 57.1038 46.6543 56.6455 46.6543C55.915 46.6543 55.3493 46.7385 54.9482 46.9068C54.5508 47.0751 54.3538 47.3132 54.3574 47.6211ZM58.8154 39.8008H59.8359V45.7198H58.8154V39.8008Z" fill="#A2A5AA"/>
</svg>
