<svg width="103" height="60" viewBox="0 0 103 60" fill="none" xmlns="http://www.w3.org/2000/svg">
<g clip-path="url(#clip0_466_1758)">
<path d="M56.449 12.55C55.128 11.228 53.37 10.5 51.5 10.5C49.63 10.5 47.872 11.228 46.55 12.55C43.821 15.279 43.821 19.72 46.558 22.457L49.053 24.897C49.728 25.557 50.614 25.887 51.5 25.887C52.386 25.887 53.272 25.557 53.947 24.897L56.449 22.449C57.771 21.127 58.5 19.369 58.5 17.499C58.5 15.629 57.771 13.873 56.449 12.55ZM51.5 20.49C49.843 20.49 48.5 19.147 48.5 17.49C48.5 15.833 49.843 14.49 51.5 14.49C53.157 14.49 54.5 15.833 54.5 17.49C54.5 19.147 53.157 20.49 51.5 20.49ZM63.5 27.262C63.502 27.616 63.317 27.944 63.015 28.125L53.154 34.042C52.644 34.348 52.072 34.501 51.501 34.501C50.93 34.501 50.357 34.348 49.848 34.042L39.985 28.125C39.682 27.943 39.498 27.615 39.5 27.262C39.502 26.909 39.69 26.583 39.995 26.405L44.85 23.563C44.95 23.673 45.053 23.782 45.159 23.888L47.654 26.327C48.682 27.333 50.049 27.888 51.5 27.888C52.951 27.888 54.317 27.333 55.346 26.327L57.864 23.864C57.962 23.766 58.058 23.665 58.151 23.563L63.005 26.404C63.31 26.583 63.498 26.91 63.5 27.262Z" fill="url(#paint0_linear_466_1758)"/>
</g>
<path d="M40.4893 44.4072H38.9961V49.4023H37.9756V39.7881H38.9961V43.5693H40.4893V44.4072ZM31.8633 40.7227H32.873V46.1367C34.3447 46.1296 35.7699 45.9863 37.1484 45.707L37.2666 46.5664C36.486 46.7204 35.7179 46.8296 34.9624 46.894C34.2069 46.9585 33.4388 46.9889 32.6582 46.9854H31.8633V40.7227ZM48.7822 43.1504H42.1758V39.96H43.1855V42.334H48.7822V43.1504ZM41.0049 44.085H49.792V44.9121H45.8711V45.9971H48.6855V49.2842H42.1221V45.9971H44.8721V44.9121H41.0049V44.085ZM47.6973 48.4678V46.792H43.1211V48.4678H47.6973ZM56.7422 42.624C56.7422 43.154 56.8496 43.6803 57.0645 44.2031C57.2829 44.7259 57.5837 45.1932 57.9668 45.605C58.3535 46.0168 58.7904 46.3265 59.2773 46.5342L58.7188 47.3291C58.1566 47.082 57.6589 46.7078 57.2256 46.2065C56.7923 45.7052 56.4629 45.1305 56.2373 44.4824C56.0117 45.1771 55.6823 45.7983 55.249 46.3462C54.8158 46.894 54.3216 47.304 53.7666 47.5762L53.1758 46.7705C53.652 46.5485 54.0817 46.2173 54.4648 45.7769C54.8516 45.3328 55.1541 44.8333 55.3726 44.2783C55.5946 43.7233 55.7074 43.1719 55.7109 42.624V41.6035H53.5088V40.7549H58.9336V41.6035H56.7422V42.624ZM60.1475 39.7881H61.168V49.4131H60.1475V39.7881ZM70.5029 45.041H67.5918V47.3936H71.5127V48.2314H62.7041V47.3936H66.582V45.041H63.7998V40.5293H70.417V41.3564H64.8203V44.2246H70.5029V45.041Z" fill="#4BB200"/>
<defs>
<linearGradient id="paint0_linear_466_1758" x1="51.5" y1="-0.0886843" x2="51.5" y2="37.1807" gradientUnits="userSpaceOnUse">
<stop stop-color="#FFDE00"/>
<stop offset="0.9" stop-color="#89E119"/>
</linearGradient>
<clipPath id="clip0_466_1758">
<rect width="24" height="24" fill="white" transform="translate(39.5 10.5)"/>
</clipPath>
</defs>
</svg>
