<svg width="103" height="60" viewBox="0 0 103 60" fill="none" xmlns="http://www.w3.org/2000/svg">
<g clip-path="url(#clip0_466_1174)">
<path d="M41.5 19.5V15.5C41.5 12.743 43.743 10.5 46.5 10.5H56.5C59.257 10.5 61.5 12.743 61.5 15.5V19.5H56.5V16.5C56.5 15.948 56.053 15.5 55.5 15.5C54.947 15.5 54.5 15.948 54.5 16.5V19.5H41.5ZM56.5 21.5V27.5C56.5 28.053 56.053 28.5 55.5 28.5C54.947 28.5 54.5 28.053 54.5 27.5V21.5H41.5V29.5C41.5 32.257 43.743 34.5 46.5 34.5H56.5C59.257 34.5 61.5 32.257 61.5 29.5V21.5H56.5Z" fill="url(#paint0_linear_466_1174)"/>
</g>
<path d="M35.7358 44.4072H34.2427V49.4023H33.2222V39.7881H34.2427V43.5693H35.7358V44.4072ZM27.1099 40.7227H28.1196V46.1367C29.5913 46.1296 31.0164 45.9863 32.395 45.707L32.5132 46.5664C31.7326 46.7204 30.9645 46.8296 30.209 46.894C29.4535 46.9585 28.6854 46.9889 27.9048 46.9854H27.1099V40.7227ZM39.3882 40.4756C39.8895 40.4756 40.3389 40.5723 40.7363 40.7656C41.1338 40.9554 41.4453 41.2257 41.6709 41.5767C41.8965 41.924 42.0093 42.3197 42.0093 42.7637C42.0093 43.2077 41.8965 43.6051 41.6709 43.9561C41.4453 44.3034 41.1338 44.5755 40.7363 44.7725C40.3389 44.9658 39.8895 45.0625 39.3882 45.0625C38.8869 45.0625 38.4357 44.9658 38.0347 44.7725C37.6372 44.5755 37.3257 44.3034 37.1001 43.9561C36.8781 43.6051 36.7671 43.2077 36.7671 42.7637C36.7671 42.3197 36.8781 41.924 37.1001 41.5767C37.3257 41.2293 37.6372 40.959 38.0347 40.7656C38.4357 40.5723 38.8869 40.4756 39.3882 40.4756ZM36.3052 46.5127C37.5155 46.5127 38.6326 46.493 39.6567 46.4536C40.6808 46.4142 41.6584 46.3265 42.5894 46.1904L42.6646 46.9316C41.7049 47.1178 40.7292 47.236 39.7373 47.2861C38.749 47.3363 37.6479 47.3613 36.4341 47.3613L36.3052 46.5127ZM37.7769 42.7637C37.7733 43.043 37.8395 43.29 37.9756 43.5049C38.1152 43.7161 38.3068 43.8809 38.5503 43.999C38.7974 44.1136 39.0767 44.1709 39.3882 44.1709C39.6997 44.1709 39.9772 44.1136 40.2207 43.999C40.4678 43.8809 40.6611 43.7161 40.8008 43.5049C40.9404 43.29 41.0103 43.043 41.0103 42.7637C41.0103 42.488 40.9404 42.2445 40.8008 42.0332C40.6611 41.8184 40.4678 41.6519 40.2207 41.5337C39.9736 41.4155 39.6961 41.3564 39.3882 41.3564C39.0767 41.3564 38.7974 41.4155 38.5503 41.5337C38.3068 41.6519 38.1152 41.8184 37.9756 42.0332C37.8395 42.2445 37.7733 42.488 37.7769 42.7637ZM43.1909 39.7881H44.2114V49.4346H43.1909V39.7881ZM56.6509 45.5996H55.6841V43.0859H54.4595V45.2559H53.5142V39.9707H54.4595V42.248H55.6841V39.7988H56.6509V45.5996ZM48.895 40.5508H49.9155V43.9453C50.4383 43.9382 50.936 43.9131 51.4087 43.8701C51.8849 43.8271 52.3791 43.7555 52.8911 43.6553L52.9878 44.4932C52.4006 44.6077 51.8366 44.6865 51.2959 44.7295C50.7588 44.7725 50.1698 44.7939 49.5288 44.7939H48.895V40.5508ZM50.1733 47.5654C50.1698 47.1859 50.2987 46.8582 50.5601 46.5825C50.825 46.3068 51.2028 46.0955 51.6934 45.9487C52.1839 45.8019 52.7622 45.7285 53.4282 45.7285C54.0907 45.7285 54.6672 45.8019 55.1577 45.9487C55.6519 46.0955 56.0332 46.3068 56.3018 46.5825C56.5703 46.8582 56.7046 47.1859 56.7046 47.5654C56.7046 47.9414 56.5703 48.2673 56.3018 48.543C56.0332 48.8187 55.6519 49.0282 55.1577 49.1714C54.6672 49.3182 54.0907 49.3916 53.4282 49.3916C52.7622 49.3916 52.1839 49.3182 51.6934 49.1714C51.2028 49.0282 50.825 48.8187 50.5601 48.543C50.2987 48.2673 50.1698 47.9414 50.1733 47.5654ZM51.1831 47.5654C51.1795 47.7767 51.2655 47.9593 51.4409 48.1133C51.62 48.2673 51.876 48.3854 52.209 48.4678C52.5456 48.5465 52.943 48.5859 53.4014 48.5859C54.1139 48.5859 54.6707 48.4982 55.0718 48.3228C55.4764 48.1437 55.6805 47.8913 55.6841 47.5654C55.6841 47.3506 55.5928 47.1662 55.4102 47.0122C55.2275 46.8547 54.9679 46.7347 54.6313 46.6523C54.2948 46.5664 53.8937 46.5234 53.4282 46.5234C52.9627 46.5234 52.5599 46.5664 52.2197 46.6523C51.8831 46.7347 51.6253 46.8547 51.4463 47.0122C51.2673 47.1662 51.1795 47.3506 51.1831 47.5654ZM61.313 41.5605C61.3094 41.9688 61.3989 42.359 61.5815 42.7314C61.7677 43.1003 62.0345 43.4279 62.3818 43.7144C62.7292 43.9972 63.1427 44.2139 63.6226 44.3643L63.1392 45.1592C62.5985 44.9873 62.1294 44.7295 61.7319 44.3857C61.3381 44.042 61.0337 43.6374 60.8188 43.1719C60.6076 43.7054 60.2943 44.1709 59.8789 44.5684C59.4635 44.9622 58.9712 45.2594 58.4019 45.46L57.8755 44.6436C58.366 44.4824 58.7939 44.2461 59.1592 43.9346C59.5244 43.623 59.8037 43.2632 59.9971 42.855C60.1904 42.4468 60.2889 42.0189 60.2925 41.5713V41.3027H58.1763V40.4756H63.3862V41.3027H61.313V41.5605ZM59.1753 47.5869C59.1753 47.2145 59.3042 46.894 59.562 46.6255C59.8234 46.3569 60.1958 46.1528 60.6792 46.0132C61.1662 45.8735 61.7427 45.8037 62.4087 45.8037C63.0675 45.8037 63.6351 45.8735 64.1113 46.0132C64.5911 46.1528 64.9582 46.3569 65.2124 46.6255C65.4702 46.894 65.5991 47.2145 65.5991 47.5869C65.5991 47.9665 65.4702 48.2905 65.2124 48.5591C64.9582 48.8312 64.5911 49.0371 64.1113 49.1768C63.6351 49.32 63.0675 49.3916 62.4087 49.3916C61.7427 49.3916 61.1662 49.32 60.6792 49.1768C60.1958 49.0371 59.8234 48.8312 59.562 48.5591C59.3042 48.2905 59.1753 47.9665 59.1753 47.5869ZM60.1958 47.5869C60.1922 47.9056 60.382 48.1527 60.7651 48.3281C61.1519 48.5 61.689 48.5859 62.3765 48.5859C63.0819 48.5859 63.6297 48.5 64.02 48.3281C64.4103 48.1562 64.6037 47.9092 64.6001 47.5869C64.6037 47.2754 64.4157 47.0355 64.0361 46.8672C63.6566 46.6953 63.1248 46.6094 62.4409 46.6094C61.7284 46.6094 61.1751 46.6935 60.7812 46.8618C60.3874 47.0301 60.1922 47.2718 60.1958 47.5869ZM64.4927 39.7881H65.5132V42.1729H66.9097V43.0107H65.5132V45.5674H64.4927V39.7881ZM75.2456 41.6572C75.242 42.2122 75.2331 42.6867 75.2188 43.0806C75.208 43.4709 75.1758 43.9274 75.1221 44.4502C75.0719 44.973 74.9914 45.5387 74.8804 46.1475L73.8491 46.04C73.9637 45.4635 74.0479 44.9211 74.1016 44.4126C74.1553 43.9006 74.1875 43.4494 74.1982 43.0591C74.2126 42.6688 74.2215 42.2015 74.2251 41.6572V41.5391H68.3813V40.7119H75.2456V41.6572ZM67.4575 47.2646H70.7983V43.8701H71.8081V47.2646H76.2339V48.1133H67.4575V47.2646Z" fill="#4BB200"/>
<defs>
<linearGradient id="paint0_linear_466_1174" x1="51.5" y1="-0.0882434" x2="51.5" y2="37.1796" gradientUnits="userSpaceOnUse">
<stop stop-color="#FFDE00"/>
<stop offset="0.9" stop-color="#89E119"/>
</linearGradient>
<clipPath id="clip0_466_1174">
<rect width="24" height="24" fill="white" transform="translate(39.5 10.5)"/>
</clipPath>
</defs>
</svg>
