<svg width="103" height="60" viewBox="0 0 103 60" fill="none" xmlns="http://www.w3.org/2000/svg">
<path d="M55.999 32.986C54.707 33.326 53.219 33.5 51.5 33.5C49.781 33.5 48.293 33.326 47.001 32.986C47.004 29.633 48.141 28.5 51.5 28.5C54.859 28.5 55.996 29.634 55.999 32.986ZM51.5 18.5C49.911 18.5 49.5 18.911 49.5 20.5C49.5 22.089 49.911 22.5 51.5 22.5C53.089 22.5 53.5 22.089 53.5 20.5C53.5 18.911 53.089 18.5 51.5 18.5ZM62.5 22.5C62.5 27.528 61.09 30.665 57.978 32.247C57.758 28.282 55.735 26.5 51.5 26.5C47.265 26.5 45.242 28.282 45.022 32.247C41.911 30.665 40.5 27.527 40.5 22.5C40.5 14.79 43.79 11.5 51.5 11.5C59.21 11.5 62.5 14.79 62.5 22.5ZM55.5 20.5C55.5 17.809 54.191 16.5 51.5 16.5C48.809 16.5 47.5 17.809 47.5 20.5C47.5 23.191 48.809 24.5 51.5 24.5C54.191 24.5 55.5 23.191 55.5 20.5Z" fill="url(#paint0_linear_466_1789)"/>
<path d="M40.4893 44.4072H38.9961V49.4023H37.9756V39.7881H38.9961V43.5693H40.4893V44.4072ZM31.8633 40.7227H32.873V46.1367C34.3447 46.1296 35.7699 45.9863 37.1484 45.707L37.2666 46.5664C36.486 46.7204 35.7179 46.8296 34.9624 46.894C34.2069 46.9585 33.4388 46.9889 32.6582 46.9854H31.8633V40.7227ZM44.1416 40.4756C44.6429 40.4756 45.0923 40.5723 45.4897 40.7656C45.8872 40.9554 46.1987 41.2257 46.4243 41.5767C46.6499 41.924 46.7627 42.3197 46.7627 42.7637C46.7627 43.2077 46.6499 43.6051 46.4243 43.9561C46.1987 44.3034 45.8872 44.5755 45.4897 44.7725C45.0923 44.9658 44.6429 45.0625 44.1416 45.0625C43.6403 45.0625 43.1891 44.9658 42.7881 44.7725C42.3906 44.5755 42.0791 44.3034 41.8535 43.9561C41.6315 43.6051 41.5205 43.2077 41.5205 42.7637C41.5205 42.3197 41.6315 41.924 41.8535 41.5767C42.0791 41.2293 42.3906 40.959 42.7881 40.7656C43.1891 40.5723 43.6403 40.4756 44.1416 40.4756ZM41.0586 46.5127C42.2689 46.5127 43.3861 46.493 44.4102 46.4536C45.4342 46.4142 46.4118 46.3265 47.3428 46.1904L47.418 46.9316C46.4583 47.1178 45.4826 47.236 44.4907 47.2861C43.5024 47.3363 42.4014 47.3613 41.1875 47.3613L41.0586 46.5127ZM42.5303 42.7637C42.5267 43.043 42.5929 43.29 42.729 43.5049C42.8687 43.7161 43.0602 43.8809 43.3037 43.999C43.5508 44.1136 43.8301 44.1709 44.1416 44.1709C44.4531 44.1709 44.7306 44.1136 44.9741 43.999C45.2212 43.8809 45.4146 43.7161 45.5542 43.5049C45.6938 43.29 45.7637 43.043 45.7637 42.7637C45.7637 42.488 45.6938 42.2445 45.5542 42.0332C45.4146 41.8184 45.2212 41.6519 44.9741 41.5337C44.7271 41.4155 44.4495 41.3564 44.1416 41.3564C43.8301 41.3564 43.5508 41.4155 43.3037 41.5337C43.0602 41.6519 42.8687 41.8184 42.729 42.0332C42.5929 42.2445 42.5267 42.488 42.5303 42.7637ZM47.9443 39.7881H48.9648V49.4346H47.9443V39.7881ZM61.2217 49.4238H60.2012V46.792H54.7012V45.9756H61.2217V49.4238ZM53.6377 40.4971H58.1064V42.1729H60.2012V39.7881H61.2217V45.46H60.2012V43H58.1064V44.8584H53.6377V40.4971ZM57.1074 44.042V41.3242H54.6475V44.042H57.1074ZM67.8604 40.2285C67.8604 41.5033 67.4862 42.5614 66.7378 43.4028C65.993 44.2443 64.849 44.8656 63.3057 45.2666L62.9512 44.4502C64.4264 44.0706 65.4756 43.4924 66.0986 42.7153L63.0586 42.9463L62.8975 42.1084L66.5444 41.9634C66.659 41.6912 66.7324 41.3923 66.7646 41.0664H63.3809V40.2285H67.8604ZM64.3906 45.5029H65.3896V46.5557H69.6758V45.5029H70.6855V49.2949H64.3906V45.5029ZM69.6758 48.4678V47.3506H65.3896V48.4678H69.6758ZM69.665 39.7881H70.6855V45.0947H69.665V39.7881Z" fill="#4BB200"/>
<defs>
<linearGradient id="paint0_linear_466_1789" x1="51.5" y1="1.79411" x2="51.5" y2="35.9563" gradientUnits="userSpaceOnUse">
<stop stop-color="#FFDE00"/>
<stop offset="0.9" stop-color="#89E119"/>
</linearGradient>
</defs>
</svg>
