<svg width="103" height="60" viewBox="0 0 103 60" fill="none" xmlns="http://www.w3.org/2000/svg">
<g clip-path="url(#clip0_466_1778)">
<path d="M52.5 10.496H44.5C41.743 10.496 39.5 12.739 39.5 15.496V28.35C39.5 29.143 39.935 29.869 40.634 30.244C40.952 30.415 41.301 30.499 41.649 30.499C42.065 30.499 42.48 30.378 42.84 30.139L46.803 27.496H52.5C55.257 27.496 57.5 25.253 57.5 22.496V15.496C57.5 12.739 55.257 10.496 52.5 10.496ZM63.5 19.496V32.35C63.5 33.143 63.065 33.869 62.366 34.244C62.048 34.415 61.699 34.499 61.351 34.5C60.935 34.5 60.52 34.379 60.161 34.14L56.197 31.496H50.5C49.05 31.496 47.753 30.865 46.839 29.876L47.408 29.496H52.5C56.359 29.496 59.5 26.355 59.5 22.496V15.496C59.5 15.188 59.473 14.888 59.435 14.59C61.746 15.03 63.5 17.059 63.5 19.496Z" fill="url(#paint0_linear_466_1778)"/>
</g>
<path d="M45.2266 42.7314C45.2266 43.2399 45.3035 43.7376 45.4575 44.2246C45.6151 44.7116 45.8478 45.152 46.1558 45.5459C46.4637 45.9398 46.8343 46.2513 47.2676 46.4805L46.6875 47.2432C46.2327 47.0033 45.8407 46.6667 45.5112 46.2334C45.1854 45.8001 44.9329 45.3042 44.7539 44.7456C44.5785 45.3472 44.3278 45.8825 44.002 46.3516C43.6797 46.8206 43.293 47.1859 42.8418 47.4473L42.2402 46.6953C42.6699 46.4447 43.0369 46.1099 43.3413 45.6909C43.6457 45.2684 43.8748 44.8011 44.0288 44.2891C44.1864 43.777 44.2669 43.2578 44.2705 42.7314V42.377H42.4873V41.5283H44.2705V40.1318H45.2266V41.5283H46.9775V42.377H45.2266V42.7314ZM47.5684 39.9707H48.5352V43.6123H49.6846V39.7881H50.6621V49.4131H49.6846V44.4717H48.5352V48.9404H47.5684V39.9707ZM57.0322 41.3027H53.4336V42.3662H56.7637V43.1719H53.4336V44.2676H54.019C54.8569 44.2676 55.5552 44.2515 56.1138 44.2192C56.6724 44.1834 57.2292 44.1172 57.7842 44.0205L57.8916 44.8477C57.265 44.9515 56.6348 45.0213 56.001 45.0571C55.3708 45.0894 54.5526 45.1055 53.5464 45.1055H53.1973H52.4023V40.4863H57.0322V41.3027ZM53.3369 47.6191C53.3369 47.2467 53.4676 46.9281 53.729 46.6631C53.9904 46.3981 54.3664 46.1958 54.8569 46.0562C55.3475 45.9165 55.9329 45.8467 56.6133 45.8467C57.2829 45.8467 57.863 45.9165 58.3535 46.0562C58.8477 46.1958 59.2272 46.3999 59.4922 46.6685C59.7572 46.9334 59.8896 47.2503 59.8896 47.6191C59.8896 47.9915 59.7572 48.3102 59.4922 48.5752C59.2272 48.8438 58.8477 49.0461 58.3535 49.1821C57.863 49.3218 57.2829 49.3916 56.6133 49.3916C55.9329 49.3916 55.3475 49.3218 54.8569 49.1821C54.3664 49.0461 53.9904 48.8455 53.729 48.5806C53.4676 48.3156 53.3369 47.9951 53.3369 47.6191ZM54.3574 47.6191C54.3538 47.9307 54.549 48.1724 54.9429 48.3442C55.3368 48.5161 55.8936 48.6038 56.6133 48.6074C57.3223 48.6038 57.8755 48.5161 58.2729 48.3442C58.674 48.1724 58.8727 47.9307 58.8691 47.6191C58.8691 47.4186 58.7796 47.2467 58.6006 47.1035C58.4251 46.9567 58.1691 46.8457 57.8325 46.7705C57.4995 46.6917 57.1038 46.6523 56.6455 46.6523C55.915 46.6523 55.3493 46.7365 54.9482 46.9048C54.5508 47.0731 54.3538 47.3112 54.3574 47.6191ZM58.8154 39.7988H59.8359V45.7178H58.8154V39.7988Z" fill="#4BB200"/>
<defs>
<linearGradient id="paint0_linear_466_1778" x1="51.5" y1="-0.0940104" x2="51.5" y2="37.18" gradientUnits="userSpaceOnUse">
<stop stop-color="#FFDE00"/>
<stop offset="0.9" stop-color="#89E119"/>
</linearGradient>
<clipPath id="clip0_466_1778">
<rect width="24" height="24" fill="white" transform="translate(39.5 10.5)"/>
</clipPath>
</defs>
</svg>
