<svg width="103" height="60" viewBox="0 0 103 60" fill="none" xmlns="http://www.w3.org/2000/svg">
<path d="M49.053 24.8975C49.728 25.5575 50.614 25.8875 51.5 25.8875C52.386 25.8875 53.272 25.5575 53.947 24.8975L56.449 22.4495C57.771 21.1275 58.5 19.3695 58.5 17.4995C58.5 15.6295 57.771 13.8725 56.449 12.5495C55.128 11.2275 53.37 10.4995 51.5 10.4995C49.63 10.4995 47.872 11.2275 46.55 12.5495C43.821 15.2785 43.821 19.7195 46.558 22.4565L49.053 24.8965V24.8975ZM47.964 13.9645C48.908 13.0205 50.164 12.5005 51.5 12.5005C52.836 12.5005 54.091 13.0205 55.035 13.9645C55.979 14.9085 56.5 16.1645 56.5 17.5005C56.5 18.8365 55.979 20.0915 55.043 21.0285L52.549 23.4685C51.971 24.0325 51.029 24.0325 50.451 23.4685L47.964 21.0365C46.015 19.0865 46.015 15.9135 47.964 13.9645ZM48.5 17.4905C48.5 15.8335 49.843 14.4905 51.5 14.4905C53.157 14.4905 54.5 15.8335 54.5 17.4905C54.5 19.1475 53.157 20.4905 51.5 20.4905C49.843 20.4905 48.5 19.1475 48.5 17.4905ZM63.5 27.2675C63.5 27.6195 63.315 27.9445 63.015 28.1245L53.154 34.0415C52.644 34.3475 52.072 34.5005 51.501 34.5005C50.93 34.5005 50.357 34.3475 49.848 34.0415L39.985 28.1255C39.684 27.9445 39.5 27.6195 39.5 27.2685C39.5 26.9175 39.685 26.5915 39.985 26.4115L44.214 23.8745C44.689 23.5895 45.303 23.7435 45.586 24.2175C45.87 24.6915 45.717 25.3055 45.243 25.5895L42.443 27.2695L50.876 32.3295C51.261 32.5595 51.739 32.5595 52.124 32.3295L60.557 27.2695L57.757 25.5895C57.283 25.3055 57.13 24.6915 57.414 24.2175C57.698 23.7435 58.311 23.5895 58.786 23.8745L63.015 26.4115C63.316 26.5925 63.5 26.9165 63.5 27.2675Z" fill="#B0B3BA"/>
<path d="M40.4893 44.4077H38.9961V49.4028H37.9756V39.7886H38.9961V43.5698H40.4893V44.4077ZM31.8633 40.7232H32.873V46.1372C34.3447 46.1301 35.7699 45.9868 37.1484 45.7075L37.2666 46.5669C36.486 46.7209 35.7179 46.8301 34.9624 46.8945C34.2069 46.959 33.4388 46.9894 32.6582 46.9859H31.8633V40.7232ZM48.7822 43.1509H42.1758V39.9605H43.1855V42.3345H48.7822V43.1509ZM41.0049 44.0855H49.792V44.9126H45.8711V45.9976H48.6855V49.2847H42.1221V45.9976H44.8721V44.9126H41.0049V44.0855ZM47.6973 48.4683V46.7925H43.1211V48.4683H47.6973ZM56.7422 42.6245C56.7422 43.1545 56.8496 43.6808 57.0645 44.2036C57.2829 44.7264 57.5837 45.1937 57.9668 45.6055C58.3535 46.0173 58.7904 46.327 59.2773 46.5347L58.7188 47.3296C58.1566 47.0825 57.6589 46.7083 57.2256 46.207C56.7923 45.7057 56.4629 45.131 56.2373 44.4829C56.0117 45.1776 55.6823 45.7988 55.249 46.3467C54.8158 46.8945 54.3216 47.3045 53.7666 47.5767L53.1758 46.771C53.652 46.549 54.0817 46.2178 54.4648 45.7774C54.8516 45.3333 55.1541 44.8338 55.3726 44.2788C55.5946 43.7238 55.7074 43.1724 55.7109 42.6245V41.604H53.5088V40.7554H58.9336V41.604H56.7422V42.6245ZM60.1475 39.7886H61.168V49.4136H60.1475V39.7886ZM70.5029 45.0415H67.5918V47.3941H71.5127V48.2319H62.7041V47.3941H66.582V45.0415H63.7998V40.5298H70.417V41.3569H64.8203V44.2251H70.5029V45.0415Z" fill="#A2A5AA"/>
</svg>
